<svg  xmlns:svg="http://www.w3.org/2000/svg" xmlns="http://www.w3.org/2000/svg"  version="1.1"
								   width="11"  height="13"  viewBox="0 0 32.8458 48.0651"  xml:space="preserve"  style="fill-rule:evenodd"> <path d="m 0.366602,25.9615 6.55951,0 c 0.989956,-0.923331 2.04437,-1.81763 3.10431,-2.69058 l -9.26169,0 0.366602,-4.42024 14.1836,0 c 2.28281,-2.08803 3.93805,-4.12752 3.99557,-6.246 0.05482,-2.01945 -1.72977,-5.09289 -7.20692,-5.18898 -5.47715,-0.096092 -9.8975,1.92184 -9.8975,1.92184 L 2.786637,1.36188 c 0,0 4.42024,-1.53748 11.2428,-1.34529 6.82255,0.192184 15.7591,3.26714 15.7591,11.8193 0,2.54542 -1.07922,4.86582 -2.70672,7.01473 l 5.76391,0 -0.366602,4.42024 -9.59687,0 c -1.03004,0.925606 -2.09897,1.82012 -3.14819,2.69058 l 12.3429,0 -0.366602,4.42024 -17.0352,0 c -1.70063,1.71114 -2.84182,3.35749 -2.8559,4.9968 -0.03239,3.75496 3.07506,5.38117 8.6483,5.18898 5.57324,-0.192184 11.1467,-2.59449 11.1467,-2.59449 l -0.672646,8.26393 c 0.02329,-0.286327 -3.84369,1.92184 -13.0685,1.82575 -9.22486,-0.09609 -16.6237,-4.42046 -16.5279,-12.3959 0.02275,-1.88794 0.682396,-3.63894 1.73573,-5.28507 l -3.08102,0 0.366602,-4.42024 z"
								   id="path10" style="fill:#333c4c" />
								</svg>